<?xml version="1.0" encoding="UTF-8"?>
<svg width="200.0mm" height="200.0mm" viewBox="0 0 567 567" version="1.1" xmlns="http://www.w3.org/2000/svg" xmlns:xlink="http://www.w3.org/1999/xlink">
    <g id="Background" stroke="none" stroke-width="1" fill="none" fill-rule="evenodd">
        <g id="Grid">
            <g id="Horizontal" transform="translate(0.000000, 84.105000)" stroke="#000000" stroke-width="4">
                <line x1="180" y1="0.895" x2="386" y2="0.895" id="Line-1" stroke-width="5"></line>
                <line x1="126.63" y1="57.645" x2="439.425" y2="57.645" id="Line-1" stroke-width="5"></line>
                <line x1="76.545" y1="114.345" x2="488.565" y2="114.345" id="Line-1" stroke-width="5"></line>
                <line x1="76.545" y1="171.045" x2="488.565" y2="171.045" id="Line-1" stroke-width="5"></line>
                <line x1="113.4" y1="227.745" x2="453.6" y2="227.745" id="Line-1" stroke-width="5"></line>
                <line x1="76.545" y1="284.445" x2="488.565" y2="284.445" id="Line-1" stroke-width="5"></line>
                <line x1="76.545" y1="341.145" x2="488.565" y2="341.145" id="Line-1" stroke-width="5"></line>
                <line x1="93" y1="397.895" x2="473" y2="397.895" id="Line-1" stroke-width="5"></line>
            </g>
            <g id="Vertical" transform="translate(75.600000, 0.000000)" stroke="#000000" stroke-linecap="square" stroke-width="4">
                <line x1="103.95" y1="85.05" x2="103.95" y2="141.75" id="Line-2" stroke-width="5"></line>
                <line x1="217.35" y1="85.05" x2="217.35" y2="141.75" id="Line-2" stroke-width="5"></line>
                <line x1="310.905" y1="85.05" x2="310.905" y2="141.75" id="Line-2" stroke-width="5"></line>
                <line x1="51.03" y1="141.75" x2="51.03" y2="198.45" id="Line-2" stroke-width="5"></line>
                <line x1="141.75" y1="141.75" x2="141.75" y2="198.45" id="Line-2" stroke-width="5"></line>
                <line x1="241.92" y1="141.75" x2="241.92" y2="198.45" id="Line-2" stroke-width="5"></line>
                <line x1="363.825" y1="141.75" x2="363.825" y2="198.45" id="Line-2" stroke-width="5"></line>
                <line x1="412.965" y1="198.45" x2="412.965" y2="255.15" id="Line-2" stroke-width="5"></line>
                <line x1="323.19" y1="198.45" x2="323.19" y2="255.15" id="Line-2" stroke-width="5"></line>
                <line x1="241.92" y1="198.45" x2="241.92" y2="255.15" id="Line-2" stroke-width="5"></line>
                <line x1="141.75" y1="198.45" x2="141.75" y2="255.15" id="Line-2" stroke-width="5"></line>
                <line x1="0.945" y1="198.45" x2="0.945" y2="255.15" id="Line-2" stroke-width="5"></line>
                <line x1="37.8" y1="311.85" x2="37.8" y2="368.55" id="Line-2" stroke-width="5"></line>
                <line x1="119.07" y1="311.85" x2="119.07" y2="368.55" id="Line-2" stroke-width="5"></line>
                <line x1="210.735" y1="311.85" x2="210.735" y2="368.55" id="Line-2" stroke-width="5"></line>
                <line x1="210.735" y1="368.55" x2="210.735" y2="425.25" id="Line-2" stroke-width="5"></line>
                <line x1="92.61" y1="368.55" x2="92.61" y2="425.25" id="Line-2" stroke-width="5"></line>
                <line x1="0.945" y1="368.55" x2="0.945" y2="425.25" id="Line-2" stroke-width="5"></line>
                <line x1="323.19" y1="368.55" x2="323.19" y2="425.25" id="Line-2" stroke-width="5"></line>
                <line x1="412.965" y1="368.55" x2="412.965" y2="425.25" id="Line-2" stroke-width="5"></line>
                <line x1="396.9" y1="425.25" x2="396.9" y2="481.95" id="Line-2" stroke-width="5"></line>
                <line x1="288.225" y1="425.25" x2="288.225" y2="481.95" id="Line-2" stroke-width="5"></line>
                <line x1="210.735" y1="422.415" x2="210.735" y2="481.95" id="Line-2" stroke-width="5"></line>
                <line x1="119.07" y1="425.25" x2="119.07" y2="481.95" id="Line-2" stroke-width="5"></line>
                <line x1="17.01" y1="425.25" x2="17.01" y2="481.95" id="Line-2" stroke-width="5"></line>
                <line x1="106.785" y1="255.15" x2="106.785" y2="311.85" id="Line-2" stroke-width="5"></line>
                <line x1="157.815" y1="255.15" x2="157.815" y2="311.85" id="Line-2" stroke-width="5"></line>
                <line x1="207.9" y1="255.15" x2="207.9" y2="311.85" id="Line-2" stroke-width="5"></line>
                <line x1="257.985" y1="255.15" x2="257.985" y2="311.85" id="Line-2" stroke-width="5"></line>
                <line x1="308.07" y1="255.15" x2="308.07" y2="311.85" id="Line-2" stroke-width="5"></line>
                <line x1="296.73" y1="311.85" x2="296.73" y2="368.55" id="Line-2" stroke-width="5"></line>
                <line x1="378" y1="311.85" x2="378" y2="368.55" id="Line-2" stroke-width="5"></line>
            </g>
        </g>
    </g>
</svg>
